# xmcd CD database file
#
# Track frame offsets:
#	150
#	16773
#	32627
#	48979
#	63277
#	75162
#	89775
#	107471
#	121662
#	136093
#	148504
#	159152
#
# Disc length: 2325 seconds
#
# Revision: 0
# Processed by: cddbd v1.5.2PL0 Copyright (c) Steve Scherf et al.
# Submitted via: CDex 1.51
#
DISCID=8309130c
DTITLE=Kenny Burrell - Have Yourself A Soulful Little Christmas
DYEAR=2003
DGENRE=Jazz
TTITLE0=Kenny Burrell - The Little Drummer Boy
TTITLE1=Kenny Burrell - Have Yourself A Merry Little Christmas
TTITLE2=Kenny Burrell - My Favorite Things
TTITLE3=Kenny Burrell - Away In A Manger
TTITLE4=Kenny Burrell - Mary's Little Boy Chile
TTITLE5=Kenny Burrell - White Christmas
TTITLE6=Kenny Burrell - God Rest Ye Merry Gentlemen
TTITLE7=Kenny Burrell - The Christmas Song
TTITLE8=Kenny Burrell - Children Go Where I Send Thee
TTITLE9=Kenny Burrell - Silent Night
TTITLE10=Kenny Burrell - The Twelve Days Of Christmas
TTITLE11=Kenny Burrell - Merry Christmas, Baby
EXTD=YEAR: 2003
EXTT0=
EXTT1=
EXTT2=
EXTT3=
EXTT4=
EXTT5=
EXTT6=
EXTT7=
EXTT8=
EXTT9=
EXTT10=
EXTT11=
PLAYORDER=
